<?xml version="1.0" encoding="UTF-8"?><svg id="Layer_1" xmlns="http://www.w3.org/2000/svg" viewBox="0 0 852.52 688.52">
<defs>
<style>.cls-1{fill:#000;}.cls-1,.cls-2{stroke-width:0px;}.cls-2{fill:#be001c;}
</style>
</defs>
<path class="cls-1" d="M164.33,512.24c-.19-.12-.38-.25-.57-.38v-.36c.19.25.38.49.57.74Z"/>
<path class="cls-2" d="M0,609.31v79.21h266.06c67.34,0,126.72-13.21,178.13-39.67,51.42-26.46,91.39-63.45,119.97-110.94,28.55-47.48,42.83-102.5,42.83-165.07s-14.28-117.55-42.83-165.03c-28.58-47.49-68.55-84.48-119.97-110.94-51.41-26.46-110.79-39.67-178.13-39.67H0v212.67c0,91.19,34.21,179.06,95.86,246.25l19.05,20.75c24.9,24.9,49.25,41.81,73.09,50.75,23.82,8.92,45.81,11.16,65.97,6.7,20.17-4.48,37.42-13.86,51.77-28.22,14.89-14.89,23.95-30.17,27.21-45.88,3.23-15.69,2.62-31.47-1.84-47.3-4.46-15.83-11.08-31.67-19.89-47.52-7.93-14.23-16.05-28.14-24.39-41.72-.93-1.53-1.88-3.05-2.82-4.56-9.34-15.02-17.32-29.37-23.94-43.04-5.76-11.86-9.19-23.2-10.25-34.05-.16-1.66-.28-3.31-.33-4.94-.41-12.31,4.41-23.47,14.42-33.49,8.39-8.39,18.32-13.59,29.84-15.62,11.5-2.05,24.42.07,38.77,6.3,14.34,6.21,29.5,17.32,45.48,33.29,12.72,12.72,24.01,27.67,33.91,44.87,9.88,17.19,16.85,35.91,20.9,56.22l45.88-19.08c-3.78-20.04-11.63-40.31-23.54-60.92-11.93-20.55-26.12-39.11-42.63-55.61-24.91-24.91-49.15-41.68-72.67-50.34-23.56-8.66-45.36-10.69-65.38-6.09-20.04,4.61-37.37,14.2-51.98,28.81-7.36,7.36-13.34,14.81-17.92,22.34-4.86,7.97-8.16,16.02-9.89,24.16-3.4,15.83-2.86,31.67,1.62,47.52,4.46,15.83,11.04,31.72,19.68,47.7,8.68,15.97,17.75,31.39,27.21,46.27,9.48,14.9,17.48,29.24,23.95,43.06,6.49,13.8,9.95,26.86,10.36,39.17.04,1.28.02,2.53-.04,3.77-.58,10.82-5.22,20.6-13.95,29.32-8.39,8.39-18.36,13.46-29.85,15.21-6.39.98-13.19.69-20.38-.89-5.74-1.25-11.75-3.32-18.01-6.2-14.07-6.51-29.37-18.01-45.88-34.52-18.14-18.14-32.48-38.73-43.02-61.72-.08-.18-.16-.35-.24-.53-10.6-23.2-15.94-48.45-15.94-73.96v-230.49h170.46c52.29,0,97.54,9.91,135.75,29.76,38.16,19.86,67.78,47.49,88.81,82.98,21.06,35.49,31.6,76.95,31.6,124.45s-10.54,88.26-31.6,124.04c-21.03,35.78-50.65,63.56-88.81,83.41-38.21,19.85-83.46,29.76-135.75,29.76H90.21l-90.21-.76Z"/>
<path class="cls-2" d="M593.53,564.65c127.45-75.72,181.31-234.59,126.18-372.21C664.59,54.83,515.94-22.92,371.46,10.29c93.34.78,197.06,88.78,250.2,221.44,53.14,132.65,38.86,267.93-28.13,332.93Z"/>
<path class="cls-2" d="M741.02,424.26c96.21-57.16,136.87-177.1,95.25-280.98C794.66,39.39,682.44-19.31,573.37,5.76c70.46.59,148.76,67.02,188.88,167.17,40.12,100.14,29.34,202.26-21.23,251.33Z"/>
</svg>